<svg  viewBox="0 0 40 40" fill="none" xmlns="http://www.w3.org/2000/svg">
<path d="M26.6667 34.9998V32.9998C26.6667 30.1996 26.6667 28.7994 26.1217 27.7299C25.6424 26.7891 24.8775 26.0242 23.9367 25.5448C22.8671 24.9998 21.467 24.9998 18.6667 24.9998H11.3334C8.53311 24.9998 7.13298 24.9998 6.06342 25.5448C5.12261 26.0242 4.35771 26.7891 3.87834 27.7299C3.33337 28.7994 3.33337 30.1996 3.33337 32.9998V34.9998M26.6667 9.99984L30 13.3332L36.6667 6.6665M20.8334 12.4998C20.8334 15.7215 18.2217 18.3332 15 18.3332C11.7784 18.3332 9.16671 15.7215 9.16671 12.4998C9.16671 9.27818 11.7784 6.6665 15 6.6665C18.2217 6.6665 20.8334 9.27818 20.8334 12.4998Z" stroke="white" stroke-width="3" stroke-linecap="round" stroke-linejoin="round"/>
</svg>
